<svg width="60" height="60" viewBox="0 0 60 60" fill="none" xmlns="http://www.w3.org/2000/svg">
<rect width="60" height="60" rx="12" fill="url(#paint0_radial_5105_391)"/>
<path fill-rule="evenodd" clip-rule="evenodd" d="M31.0484 36.1179C30.0495 37.2429 28.6978 38.0475 27.1667 38.3583V42.75C27.1667 43.5324 26.5324 44.1667 25.75 44.1667C24.9676 44.1667 24.3333 43.5324 24.3333 42.75V38.3583C21.1001 37.702 18.6667 34.8435 18.6667 31.4167V22.9167C18.6667 19.0047 21.838 15.8333 25.75 15.8333C29.4457 15.8333 32.4803 18.6636 32.8046 22.2748C33.6446 21.7823 34.6226 21.5 35.6667 21.5C38.7963 21.5 41.3333 24.0371 41.3333 27.1667V32.8333C41.3333 35.4738 39.5274 37.6924 37.0833 38.3215V42.75C37.0833 43.5324 36.4491 44.1667 35.6667 44.1667C34.8843 44.1667 34.25 43.5324 34.25 42.75V38.3215C32.9392 37.9841 31.812 37.1895 31.0484 36.1179ZM30 22.9167V31.4167C30 33.2672 28.8173 34.8414 27.1667 35.4248V31.4167C27.1667 30.6343 26.5324 30 25.75 30C24.9676 30 24.3333 30.6343 24.3333 31.4167V35.4248C22.6826 34.8414 21.5 33.2672 21.5 31.4167V22.9167C21.5 20.5695 23.4028 18.6667 25.75 18.6667C28.0972 18.6667 30 20.5695 30 22.9167ZM37.0833 35.2876V31.4167C37.0833 30.6343 36.4491 30 35.6667 30C34.8843 30 34.25 30.6343 34.25 31.4167V35.2876C33.4031 34.7977 32.8333 33.8821 32.8333 32.8333V27.1667C32.8333 25.6019 34.1018 24.3333 35.6667 24.3333C37.2315 24.3333 38.5 25.6019 38.5 27.1667V32.8333C38.5 33.8821 37.9302 34.7977 37.0833 35.2876Z" fill="white"/>
<defs>
<radialGradient id="paint0_radial_5105_391" cx="0" cy="0" r="1" gradientUnits="userSpaceOnUse" gradientTransform="rotate(45) scale(84.8528)">
<stop offset="0.25" stop-color="#ADCE74"/>
<stop offset="0.71875" stop-color="#FFF76A"/>
<stop offset="1" stop-color="#FFCE89"/>
</radialGradient>
</defs>
</svg>
